<svg xmlns="http://www.w3.org/2000/svg" viewBox="0 0 623.2 515.44">
	<defs>
<style>
text{font-family:ArialMT, Arial;fill:#231f20;}
.scale-text{font-size:26px;}
.key-text{font-size:16px;}

.zone{fill-rule:evenodd;stroke: darkgray;stroke-width: 2px;}
#_19,#_12{fill:#f37d80;}
#_18{fill:#ffd07f;}
#_17,#_3{fill:#fbf285;}
#_16,#_7{fill:#82ba80;}
#_15{fill:#7b7bba;}
#_14{fill:#98d7d8;}
#_13{fill:#88d6f8;}
#_11{fill:#ffd47f;}
#_10{fill:#99d8e4;}
#_9,#_2{fill:#a282bb;}
#_8{fill:#fcf284;}
#_6{fill:#85d2f5;}
#_5{fill:#fdc580;}
#_4{fill:#d889ba;}
#_1{fill:#f37e94;}

#scale-bar{fill:#231f20;}
.road{stroke-miterlimit:10;stroke:#000;fill:none;}
.road.minor{stroke-width:1.5px;}
.road.regular{stroke-width:2px;}
.road.major{stroke-width:5px;}

.outline-path{stroke-miterlimit:10;stroke:#darkgray;fill:none;}

.hInlay{fill:#84a0b1;}
.hBody{fill:#cbe4f5;}
.hCross{fill:#f15a46;}
.radK{fill:#010101;}
.radY{fill:#fded2c;}
	</style>
	</defs>
	<g id="zones">
		<path id="_19" data-name="19" altId="West Parton" class="zone" d="M334.83 222.33 334.83 319.17 272.67 319.17 266.5 311.5 266.5 222.33 334.83 222.33z"/>
		<path id="_18" data-name="18" altId="East Parton" class="zone" d="M417.1,248.12c-.64,10.53-9.31,18.81-13.93,28.05,0,9.24-.2,18.54-.28,27.83-11.64.31-10.45-4.06-12.83-5a183.66,183.66,0,0,1-28.56,7.8c-2.67,1.5-19.31,12.76-19.31,12.76l-7.36-.39V222.33l82.12.79Z"/>
		<path id="_17" data-name="17" altId="Oak Willow" class="zone" d="M403.8,343.8c-3.05,7-13,1.53-15.7,8.3v13.21H335.75V345l-55.7-1.2-1.38-8.31-.2,0c-2,.24-3.65-1-5.56-1.14a4.84,4.84,0,0,1-.54-1.32h7.68c-1.86-5.66-7.38-13.83-7.38-13.83h62.16l7.36.39s16.64-11.26,19.31-12.76a183.66,183.66,0,0,0,28.56-7.8c2.38.94,1.19,5.31,12.83,5C402.78,317.36,402.85,330.71,403.8,343.8Z"/>
		<path id="_16" data-name="16" altId="Southton" class="zone" d="M266.5,222.33V311.5c-18.12-28.88-52.12-63.38-52.12-63.38V222.33Z"/>
		<path id="_15" data-name="15" altId="Weston" class="zone" d="M266.5,151.87v70.46H214.38v-71.9c6.71,4.54,12.15,0,22.53.41.44,0,.88,0,1.32.11C245.05,151.73,251.15,156.11,266.5,151.87Z"/>
		<path id="_14" data-name="14" altId="Easton" class="zone" d="M362.91,155.83a2,2,0,0,0-.1.21c-1.6,1.36-2.39,3.29-3.85,5.94-3.6,11.53-13.21,19.56-21.34,28.33l-2.79,2.81v29.21H266.5V151.87c16.5,8.69,24.69,5.14,33.92,6.38,12.2,6.19,15.7,3.75,30.91-2.42Z"/>
		<path id="_13" data-name="13" altId="Cheddarford" class="zone" d="M494.9,240.33V336h-46v29.22l-60.84.09V352.1c2.69-6.77,12.65-1.27,15.7-8.3-.95-13.09-1-26.44-.91-39.8.08-9.29.25-18.59.28-27.83,4.62-9.24,13.29-17.52,13.93-28.05l-.15-25h63.3Z"/>
		<path id="_12" data-name="12" altId="Pepper Mill" class="zone" d="M584.71,231.92V336H494.9V240.33l-14.65-17.21c16.5,1.5,16.25-2.5,27.56-3.91,4.55,17.74,25.31,31.42,29.09,49.16a16.57,16.57,0,0,1,2-.82c3.56-2.09,5.48-6.9,10-7,1.58,1.3,3.63.72,5.46,1.1,1.19,1.63-.19,4.5,1.61,5.78a27.42,27.42,0,0,0,16.39-5.72C591.17,246.62,567.71,247.92,584.71,231.92Z"/>
		<path id="_11" data-name="11" altId="Terrapin Springs" class="zone" d="M584.71,336v54.25H564l-3.88,4.87-.54,8.8-9.33.25c-19.92,14.58-54.42,31.25-54.42,31.25-.71-11.79,1.6-25.5-1.14-37L494.9,336Z"/>
		<path id="_10" data-name="10" altId="Chapparal" class="zone" d="M495.83,435.42c-4.24,4-12.19,8.38-17.83,10.33-2.18.75-7-.56-9.21,0-10.54,2.63-14,12.44-27,19.28H419.84l0-26.75c0-17.84,29.32-8.45,29.13-24.36V336h46l-.21,62.45C497.43,409.92,495.12,423.63,495.83,435.42Z"/>
		<path id="_9" data-name="9" altId="Broadview" class="zone" d="M448.94,365.22v48.7c.19,15.91-29.13,6.52-29.13,24.36l0,26.75v.14c.86,7.28-2.26,20.25,4.11,19.1.08.71.28,1.51.38,2.21a61.24,61.24,0,0,1-2.93,5.91c-18.8,5.3-37.43-3.59-52.6-14.29-8.16.9-16-2-23.84-4.16l-2-1c-16.49-13.71-11.74-43.52-34.28-55.74-4.7-7.23-13.18-11.3-18.22-18.75-7.2.06-14.75-4.74-17-11.25,7.77-11.33,5.2-26.9,2.18-39.72a15,15,0,0,1,2.27-1.56,9,9,0,0,0,2.38-.63l-.25-1.49,55.7,1.2v20.31H388.1Z"/>
		<path id="_8" data-name="8" altId="Scenic Vista" class="zone" d="M623.21,397.25v7.58L620.92,406c-2.36.41-5.6,1.46-5.73,4.25-6.89-.65-13.37,2.37-20.19,3-5.38-.69-10,.06-17,3S557.17,428,550.5,428.25s-25.38,7.7-25.38,7.7c-4.07,4.77-12.06,10.67-19.68,10.49-8.67.16-16,2.23-23,7.5-5.36,5.46-12.94,11.06-24.9,11-6.26,1.78-7.81,3.43-12.79,7.12-.22,4.2-3.94,6.48-8.18,6A43.48,43.48,0,0,1,424,484.27c-6.37,1.15-3.25-11.82-4.11-19.1V465h21.91c13-6.84,16.5-16.65,27-19.28,2.24-.56,7,.75,9.21,0,5.64-1.95,13.59-6.34,17.83-10.33,0,0,34.5-16.67,54.42-31.25l9.33-.25.54-8.8,3.88-4.87h20.71v7Z"/>
		<path id="_7" data-name="7" altId="Wilson Forest" class="zone" d="M623.21,212V397.25h-38.5V231.92s-.71-15.5,1.12-15.5,2.17-1.09,2.17-1.09c3.82.76,7.09-2.6,10.75-3.56,15.25-7.8,9.36-10,13.28-11.46,2.54-.94,3.8,5.74,3.28,8.05a76.55,76.55,0,0,0-8.32,4.55c-1.36-.28-2.51-.93-4-.73,1.31,3.4-2,6.39-4.25,8.33a3.52,3.52,0,0,0,.46,1.21,23.27,23.27,0,0,0,6.21,1.59,24.53,24.53,0,0,0,2.81-7.05c4.69.28,10,.06,12.69-4.29Z"/>
		<path id="_6" data-name="6" altId="Downtown" class="zone" d="M214.38,150.43v93.82H162.75l-.67-23.08H155V180.55c29.23-2.07,9-34.9,39.24-35.43C202.09,145.38,208.21,148.44,214.38,150.43Z"/>
		<path id="_5" data-name="5" altId="Southwest" class="zone" d="M280.05,333h-7.68c-.38-1.4-.28-2.86-.71-3.72A41.1,41.1,0,0,0,258,327l-9-1c-15.27-1-31.22-8.76-41.3-17.7-2.32-.12-4.08-1.05-6.17-2-7.58-8.88-20.31-7-30.3-10.54C165.45,290.27,162,279,152.42,280,140,271,122.78,262,121.18,243.19c6.4-11.11,3.64-23.62,4.5-34.93L125,208l-7.49-.5-.93.06V177.12c3.86-.33,11.19-.66,16.65,1,9.36,2.1,16.42,2.76,21.8,2.38v40.62h7.08l.67,23.08h51.63v3.87s34,34.5,52.12,63.38l6.17,7.67S278.19,327.34,280.05,333Z"/>
		<path id="_4" data-name="4" altId="Safe Town" class="zone" d="M507,210.07a27,27,0,0,0,.78,9.14c-11.31,1.41-11.06,5.41-27.56,3.91H417l-82.12-.79V193.12l2.79-2.81c8.13-8.77,17.74-16.8,21.34-28.33,1.46-2.65,2.25-4.58,3.85-5.94,8.81-19.66,24.38-30.54,24.64-46.55,1.32-8.84,4.66-17.5,6.75-26.25,0,0,9.62-22.25,6.55-28.21l4.56-11.28,2.64.31c1,1.09,1.22,4.77-1.28,6.61A44.54,44.54,0,0,1,408,60.49C421.11,70,429.46,81.4,439.34,94.43a8.76,8.76,0,0,1,1.5,5.32c-.06,1.09-3.65-.4-5.28.4-1.45.71-1.55,3.8-1.05,4.79,4.11,8.09,14,5.51,21.57,3.81,8.54-1.93,21.88-18.87,26.86-23L487,88.31l-18.56,20.18c4.05,4.83,10.61,7.55,13,13.49-1.35,2.45-5.09,3.43-7.68,3.27-1.69-4.73-8.32-3-10.31-7.57a2.68,2.68,0,0,0-2.7.75,24.61,24.61,0,0,0-.28,4.4c.82,1.39,2.14,2.85,2.76,3.89,1.94,1.87,3.53-.63,5.61-.24,3.81,3.2,5.63,8.56,9.7,11.63-1.68,12.18,14,23.45,6.37,35.23,1.31,4.56,6.73,7.54,7.49,12.47-3.5,13.86,12.78,15.68,21.89,19.71a3.67,3.67,0,0,1,0,1.68A54.42,54.42,0,0,0,507,210.07Z"/>
		<path id="_3" data-name="3" altId="Old Town" class="zone" d="M394.2,83.24c-2.09,8.75-5.43,17.41-6.75,26.25-.26,16-15.72,26.81-24.54,46.34H331.33c-15.21,6.17-18.71,8.61-30.91,2.42-9.23-1.24-17.42,2.31-33.92-6.38-15.35,4.24-21.45-.14-28.27-.92-.82-1.53.21-6.29-1.21-8V89.12c-.23-2-2.93-5.76-4.07-9a.42.42,0,0,1,0-.1c2.32-10.35-3.74-24,10.2-29.86,20.81,4.2,36.43-19.45,57.47-22.24,2.78,7.19,3.07,14.94,4.78,23,7.3,7.51,13.73,2.6,20.56,1.68,8-1.08,7.09,1.65,15.27,7.83-1.36,5.81,2.38,10.86,8.08,12.13-.66,5.21,2,11.08,7.58,11.94,3-3.3,8.66-.33,10.91-4.6,2.69-9.26-.84-17.55-6.31-23.73,4.83-5.69,4.47-14,1.35-20.55a3.6,3.6,0,0,1,.45-1.34c3.43-.8,5.67,2.51,8.7,3.21,2.86-5.13,10.4-4.88,15.23-3,1.09,4.16-1,9.1,1.31,12.86a14.34,14.34,0,0,1,8.88,7.12c-4,3.22-9.5,3.84-12.82,7.52a5.34,5.34,0,0,0,.68,1.8c.46.22.83.42,1.19.63,3.64.64,6.67.43,10.33.57l4-9.91C403.82,61,394.2,83.24,394.2,83.24Z"/>
		<path id="_2" data-name="2" altId="Northwest" class="zone" d="M238.23,151c-.44-.06-.88-.09-1.32-.11-10.38-.41-15.82,4.13-22.53-.41-6.17-2-12.29-5.05-20.13-5.31-35.87.63-.83,46.55-61,33V86c1-.32,2.11-.74,3.48-1.29,2.52-3.12,6.11-2.06,9.2-.58,2.74,2.23.94,6.19,1.83,9.1,8.77,3.69,22.79.75,24.8-9.51,5-.64,10.21.42,15.08-.79a3.61,3.61,0,0,1,.64,3.3c-.63.17-1.2,1.24-2,2-.31,1.52-.76,2.45-.48,3a14.31,14.31,0,0,0,11-2.52c0-3.27-1.3-10,4.15-9.26a5.78,5.78,0,0,1,2.5,2.48c-.82,1.55-1.41,3.71-.51,5.33a11.16,11.16,0,0,0,3,.22A173.6,173.6,0,0,1,233,80.1c1.14,3.26,3.84,7.06,4.07,9V143C238.44,144.66,237.41,149.42,238.23,151Z"/>
		<path id="_1" data-name="1" altId="Palace Hills" class="zone" d="M133.21,86v92.2c-5.46-1.71-12.79-1.38-16.65-1v30.41c-25.31,1.73-15,10.86-29.82,11.94l-9,26.25c.89,5.52-1.07,12-4,17a31.39,31.39,0,0,1-18.46,0c-4-1.92,2.25-10,1.73-15.24a11.81,11.81,0,0,1,2.53-3.8c4.88-.6,10,.63,14.47-1.7,2.06-2.59,1-6.08,2.39-9,4.54-20.42,4.87-20.79-6.59-32.67l-3.33-12L36.94,186v-4.79l22.78.5c0-.33,0-.66,0-1C58.3,156.24,34.88,144,57.5,109c5.69,1,11.69-2.33,12-8.32C86,91.93,99.64,86.08,123.13,86.85,128.05,87,130,87,133.21,86Z"/>
	</g>
	<g id="roads" data-name="Roads (Path)">
		<g id="CascadiaSt">
			<line id="CascadiaSt_19" data-name="CascadiaSt 19" class="road minor" x1="266.5" y1="244.25" x2="334.83" y2="244.25" zone="19"/>
			<line id="CascadiaSt_16" data-name="CascadiaSt 16" class="road minor" x1="214.38" y1="244.25" x2="266.5" y2="244.25" zone="16"/>
			<line id="CascadiaSt_5_6" data-name="CascadiaSt 5 6" class="road minor" x1="162.75" y1="244.25" x2="214.38" y2="244.25" zone="5,6"/>
			<line id="CascadiaSt_5" data-name="CascadiaSt 5" class="road minor" x1="127.13" y1="244.25" x2="162.75" y2="244.25" zone="5"/>
		</g>
		<g id="WilsonForestHwy">
			<line id="WilsonForestHwy_7_8" data-name="WilsonForestHwy 7 8" class="road regular" x1="623.21" y1="397.25" x2="586.42" y2="397.25" zone="7,8"/>
		</g>
		<g id="MainSt">
			<line id="MainSt_5" data-name="MainSt 5" class="road major" x1="194.58" y1="244.25" x2="194.58" y2="298.83" zone="5"/>
			<line id="MainSt_6" data-name="MainSt 6" class="road major" x1="194.58" y1="145.13" x2="194.58" y2="244.25" zone="6"/>
			<line id="MainSt_2" data-name="MainSt 2" class="road major" x1="194.58" y1="99.37" x2="194.58" y2="145.13" zone="2"/>
		</g>
		<g id="NorthSt">
			<line id="NorthSt_4" data-name="NorthSt 4" class="road regular" x1="382.5" y1="125" x2="447.79" y2="125" zone="4"/>
			<line id="NorthSt_3" data-name="NorthSt 3" class="road regular" x1="237.02" y1="125" x2="382.5" y2="125" zone="3"/>
			<path id="NorthSt_2" data-name="NorthSt 2" class="road regular" d="M133.21,124h58.88c2.5,0,2.5,1,5,1H237" zone="2"/>
			<path id="NorthSt_1" data-name="NorthSt 1" class="road regular" d="M57.06,124H100c0-4.14,13-4.14,13,0h20.23" zone="1"/>
		</g>
		<g id="IndependenceAve">
			<path id="IndependenceAve_4" data-name="IndependenceAve 4" class="road regular" d="M447.79,223.12V125c0-1.63,2.55-5.27,3.77-6.35" zone="4"/>
			<polyline id="IndependenceAve_13" data-name="IndependenceAve 13" class="road regular" points="448.94 336 447.79 263.08 447.79 223.12" zone="13"/>
			<line id="IndependenceAve_10_13" data-name="IndependenceAve 10 13" class="road regular" x1="448.94" y1="365.22" x2="448.94" y2="336" zone="10,13"/>
			<path id="IndependenceAve_9_10" data-name="IndependenceAve 9 10" class="road regular" d="M419.84,465.17V465l0-26.75c0-17.84,29.32-8.45,29.13-24.36v-48.7" zone="9,10"/>
			<path id="IndependenceAve_8_9" data-name="IndependenceAve 8 9" class="road regular" d="M425.47,484.34c-6.37,1.15-4.77-11.89-5.63-19.17" zone="8,9"/>
		</g>
		<g id="MalletExpy">
			<path id="MalletExpy_8" data-name="MalletExpy 8" class="road regular" d="M559.58,404.94h25.19c2.15,1,3.4,4.6,9,7.48" zone="8"/>
			<polyline id="MalletExpy_8_11" data-name="MalletExpy 8 11" class="road regular" points="547.78 404.94 549.19 404.94 559.58 404.94" zone="8,11"/>
			<path id="MalletExpy_11" data-name="MalletExpy 11" class="road regular" d="M494.69,397.71l1.48,0a193.62,193.62,0,0,0,21.54-.74h18.07l12,8" zone="11"/>
			<path id="MalletExpy_10" data-name="MalletExpy 10" class="road regular" d="M448.94,396h20.94c7.79-.48,8.21,2.65,15.45,2.52,2.2,0,5.36-.63,9.36-.76" zone="10"/>
			<path id="MalletExpy_9" data-name="MalletExpy 9" class="road regular" d="M282,343.75c5.35,45.87-5.09,38.27-5.71,45A15.37,15.37,0,0,0,289.49,396H448.94" zone="9"/>
			<path id="MalletExpy_17" data-name="MalletExpy 17" class="road regular" d="M280.07,333A59.12,59.12,0,0,1,282,343.75" zone="17"/>
			<path id="MalletExpy_5_17" data-name="MalletExpy 5 17" class="road regular" d="M272.67,319.17s4.57,3.67,7.4,13.82" zone="5,17"/>
			<line id="MalletExpy_5_19" data-name="MalletExpy 5 19" class="road regular" x1="266.5" y1="311.5" x2="272.67" y2="319.17" zone="5,19"/>
			<path id="MalletExpy_5_16" data-name="MalletExpy 5 16" class="road regular" d="M214.38,244.25v3.87s34,34.5,52.12,63.38" zone="5,16"/>
		</g>
		<g id="JadeAve">
			<path id="JadeAve_3_4" data-name="JadeAve 3 4" class="road minor" d="M362.81,156c8.81-19.66,24.38-30.54,24.64-46.55,1.32-8.84,4.66-17.5,6.75-26.25L401.39,60" zone="3,4"/>
			<path id="JadeAve_4_14" data-name="JadeAve 4 14" class="road minor" d="M334.83,222.33V193.12l2.79-2.81c8.13-8.77,17.74-16.8,21.34-28.33,1.46-2.65,2.25-4.58,3.85-5.94" zone="4,14"/>
			<line id="JadeAve_18_19" data-name="JadeAve 18 19" class="road minor" x1="334.83" y1="319.17" x2="334.83" y2="222.33" zone="18,19"/>
			<line id="JadeAve_17" data-name="JadeAve 17" class="road minor" x1="334.83" y1="344.98" x2="334.83" y2="319.17" zone="17"/>
			<line id="JadeAve_9_17" data-name="JadeAve 9 17" class="road minor" x1="334.83" y1="365.97" x2="334.83" y2="344.98" zone="9,17"/>
			<path id="JadeAve_9" data-name="JadeAve 9" class="road minor" d="M344.31,473.62v-65c0-15.3-8.4-12.25-8.4-19.67l-1.08-23" zone="9"/>
		</g>
		<g id="AlwaysSafeLoop">
			<path class="road cls-20" d="M453.62,151.87c-1.28.09,0-6.06,3.55-5.37,4.93,1,11.5,5.49,13.29,9.67.62,1.46-.31,3.7.26,6.36.82,3.81,2.86,8.3,1.16,11-.9,1.43-5.42.86-9.26.58-3.35-.23-4.78,2.75-7-1.29C452.91,167.88,459.75,151.46,453.62,151.87Z" zone="4"/>
			<line class="road cls-20" x1="447.79" y1="154.85" x2="453.29" y2="151.67" zone="4"/>
		</g>
		<g id="_12thSt" data-name="12thSt">
			<path id="_12thSt_1" data-name="12thSt 1" class="road regular" d="M116.56,178.56A56.59,56.59,0,0,0,110,180.3c-13.54,4.41-22.06-6.49-22.06,3.86"/>
			<path id="_12thSt_1_5" data-name="12thSt 1 5" class="road regular" d="M133.21,178.42a42.35,42.35,0,0,0-16.65.14"/>
			<path id="_12thSt_2_5" data-name="12thSt 2 5" class="road regular" d="M155,180.92c-4.78.35-10.94-.19-18.94-1.92-.89-.19-1.83-.39-2.85-.58"/>
			<path id="_12thSt_2_6" data-name="12thSt 2 6" class="road regular" d="M214.38,150.43c-6.17-2-12.29-5.05-20.13-5.31-30.69.54-10.94,33.73-39.25,35.8"/>
			<path id="_12thSt_2_15" data-name="12thSt 2 15" class="road regular" d="M238.23,151c-.44-.06-.88-.09-1.32-.11-10.38-.41-15.82,4.13-22.53-.41"/>
			<path id="_12thSt_3_15" data-name="12thSt 3 15" class="road regular" d="M266.5,154.11c-4.25-.32-9.16-.5-10.92-.44-7.89.27-12.44-2.16-17.35-2.72"/>
			<path id="_12thSt_3_14" data-name="12thSt 3 14" class="road regular" d="M362.85,156H331.33c-15.21,6.17-18.71,8.49-30.91,2.3-7.86-1.06-15,1.36-27.07-3.26a37.92,37.92,0,0,0-6.85-.88"/>
			<path id="_12thSt_4" data-name="12thSt 4" class="road regular" d="M466.33,105.5c-5.2,3.62-18.33,17.59-23.25,19.5,0,0-30.05,27.91-38.27,30.95-7.31,1.8-23.75,0-31.71,0-2.63,0-4.52,2.11-10.25,0"/>
		</g>
		<g id="ScenicVistaBlvd">
			<path id="ScenicVistaBlvd_8" data-name="ScenicVistaBlvd 8" class="road minor" d="M593.75,412.42s-9-1.13-15.13,1.87c-6,2.92-11.65,8.13-28.62,11.13-1.92.34-6.2-.2-7.75,1-2.81,2.17-5.32,3-7.42,2.91-5.33-.13-13.54,6.88-13.54,6.88-1.92,2-7.25-6-9.79,1-4.76,13-13.46,6.5-24.13,13.08-4.25,4.09-8.41,3.79-14.29,4.92-15.66,9.37-23.75,10.12-32.91,20.41-4.88,2.63-9.17,4.18-14.7,8.76" zone="8"/>
		</g>
		<g id="HimarkAve">
			<line id="HimarkAve_8" data-name="HimarkAve 8" class="road regular" x1="586.42" y1="390.25" x2="586.42" y2="397.25" zone="8"/>
			<line id="HimarkAve_7_11" data-name="HimarkAve 7 11" class="road regular" x1="586.42" y1="336" x2="586.42" y2="390.25" zone="7,11"/>
			<path id="HimarkAve_7_12" data-name="HimarkAve 7 12" class="road regular" d="M587.54,216.42c0,1.5-1.12,15.5-1.12,15.5V336" zone="7,12"/>
			<path id="HimarkAve_7_8" data-name="HimarkAve 7 8" class="road regular" d="M586.42,406.25v-9c0,3.29.87,6.25,7.33,15.17" zone="7,8"/>
		</g>
		<g id="Hwy19">
			<path id="Hwy19_12" data-name="Hwy19 12" class="road regular" d="M494.9,276.77q3.21.12,6.85.2h84.67" zone="12"/>
			<path id="Hwy19_13" data-name="Hwy19 13" class="road regular" d="M417.07,243.75l30.72,19.33c14,7.67,14.19,12.44,47.11,13.69" zone="13"/>
			<line id="Hwy19_18" data-name="Hwy19 18" class="road regular" x1="383.78" y1="222.8" x2="417.07" y2="243.75" zone="18"/>
			<line id="Hwy19_4" data-name="Hwy19 4" class="road regular" x1="335.51" y1="192.43" x2="383.78" y2="222.8" zone="4"/>
			<path id="Hwy19_14" data-name="Hwy19 14" class="road regular" d="M266.5,185h51.37c4.66,0,17.64,7.45,17.64,7.45" zone="4"/>
			<line id="Hwy19_15" data-name="Hwy19 15" class="road regular" x1="214.38" y1="184.98" x2="266.5" y2="184.98" zone="15"/>
			<line id="Hwy19_6" data-name="Hwy19 6" class="road regular" x1="155.01" y1="184.98" x2="214.38" y2="184.98" zone="6"/>
			<line id="Hwy19_5" data-name="Hwy19 5" class="road regular" x1="116.56" y1="184.59" x2="155.01" y2="184.98" zone="5"/>
			<line id="Hwy19_1" data-name="Hwy19 1" class="road regular" x1="60.08" y1="184" x2="116.56" y2="184.59" zone="1"/>
		</g>
		<g id="MagritteAve">
			<path id="MagritteAve_1" data-name="MagritteAve 1" class="road regular" d="M57.69,247.6c9.62-.66,11.17,4.16,15.19.74,7-6,7-22,11.43-29.78,5-8.77,3.63-34.4,3.63-34.4V108.75" zone="1"/>
		</g>
	</g>
	<g id="bridges">
		<line id="JadeBrg" class="road regular" x1="401.39" y1="60" x2="419.83"/>
		<path id="HimarkBrg" class="road regular" d="M587.54,216.42c2-36.77,18.11-127.24,23.66-177.67,1.27-21.13,0-36.07-6-38.75"/>
		<path id="_12thOfJulyBrg" data-name="12thOfJulyBrg" class="road regular" d="M524.83,0c-7.5,4.67-20.83,79-58.5,105.5"/>
		<line id="FridayBrg" class="road regular" y1="182.33" x2="60.08" y2="184"/>
		<path id="MagritteBrg" class="road regular" d="M0,269.25c20.25,0,41-24.92,58.08-21.58"/>
	</g>
	<g id="outline">
		<path class="outline-path" d="M66.46,188.29,36.94,186v-4.79l22.78.5C58.93,156.56,34.58,144.5,57.5,109c5.69,1,11.69-2.33,12-8.32C86,91.93,99.64,86.08,123.13,86.85c6.44.21,7.75.14,13.56-2.17,2.52-3.12,6.11-2.06,9.2-.58,2.74,2.23.94,6.19,1.83,9.1,8.77,3.69,22.79.75,24.8-9.51,5-.64,10.21.42,15.08-.79a3.61,3.61,0,0,1,.64,3.3c-.63.17-1.2,1.24-2,2-.31,1.52-.76,2.45-.48,3a14.31,14.31,0,0,0,11-2.52c0-3.27-1.3-10,4.15-9.26a5.78,5.78,0,0,1,2.5,2.48c-.82,1.55-1.41,3.71-.51,5.33a11.16,11.16,0,0,0,3,.22A174.68,174.68,0,0,1,233.47,80c2.32-10.35-4.3-24,9.64-29.85,20.81,4.2,36.43-19.45,57.47-22.24,2.78,7.19,3.07,14.94,4.78,23,7.3,7.51,13.73,2.6,20.56,1.68,8-1.08,7.09,1.65,15.27,7.83-1.36,5.81,2.38,10.86,8.08,12.13-.66,5.21,2,11.08,7.58,11.94,3-3.3,8.66-.33,10.91-4.6,2.69-9.26-.84-17.55-6.31-23.73,4.83-5.69,4.47-14,1.35-20.55a3.6,3.6,0,0,1,.45-1.34c3.43-.8,5.67,2.51,8.7,3.21,2.86-5.13,10.4-4.88,15.23-3,1.09,4.16-1,9.1,1.31,12.86a14.34,14.34,0,0,1,8.88,7.12c-4,3.22-9.5,3.84-12.82,7.52a5.34,5.34,0,0,0,.68,1.8c.46.22.83.42,1.19.63,3.64.64,6.67.43,10.33.57l8.56-21.19,2.64.31c1,1.09,1.22,4.77-1.28,6.61A44.54,44.54,0,0,1,408,60.49C421.11,70,429.46,81.4,439.34,94.43a8.76,8.76,0,0,1,1.5,5.32c-.06,1.09-3.65-.4-5.28.4-1.45.71-1.55,3.8-1.05,4.79,4.11,8.09,14,5.51,21.57,3.81,8.54-1.93,21.88-18.88,26.86-23L487,88.31l-18.56,20.18c4.05,4.83,10.61,7.55,13,13.49-1.35,2.45-5.09,3.43-7.68,3.27-1.69-4.73-8.32-3-10.31-7.57a2.71,2.71,0,0,0-2.71.75,24.65,24.65,0,0,0-.27,4.4c.82,1.39,2.14,2.85,2.76,3.89,1.94,1.87,3.53-.63,5.61-.24,3.81,3.2,5.63,8.56,9.7,11.63-1.68,12.18,14,23.45,6.37,35.23,1.31,4.56,6.73,7.54,7.49,12.47-3.5,13.86,12.78,15.68,21.89,19.71a3.67,3.67,0,0,1,0,1.68,54.42,54.42,0,0,0-7.17,2.87c-2,22.49,25.47,37.64,29.87,58.3a16.57,16.57,0,0,1,2-.82c3.56-2.09,5.48-6.9,10-7,1.58,1.3,3.63.72,5.46,1.1,1.19,1.63-.19,4.5,1.61,5.78a27.37,27.37,0,0,0,16.38-5.72c18.8-15.05-4.66-13.75,12.34-29.75,0,0-.71-15.5,1.12-15.5s2.17-1.09,2.17-1.09c3.82.76,7.09-2.6,10.75-3.56,15.25-7.8,9.36-10,13.28-11.46,2.54-.94,3.8,5.74,3.28,8.05a76.55,76.55,0,0,0-8.32,4.55c-1.36-.28-2.51-.93-4-.73,1.31,3.4-2,6.39-4.25,8.33a3.52,3.52,0,0,0,.46,1.21,23.27,23.27,0,0,0,6.21,1.59,24.53,24.53,0,0,0,2.81-7.05c4.69.28,10,.06,12.69-4.29l2.28.05V404.83L620.92,406c-2.36.41-5.6,1.46-5.73,4.25-6.89-.65-13.37,2.37-20.19,3-5.38-.69-10,.06-17,3S557.17,428,550.5,428.25s-25.38,7.7-25.38,7.7c-4.07,4.77-12.06,10.67-19.68,10.49-8.67.16-16,2.23-23,7.5-5.36,5.46-12.94,11.06-24.9,11-6.26,1.78-7.81,3.43-12.79,7.12-.22,4.2-3.94,6.48-8.18,6A43.48,43.48,0,0,1,424,484.27c.08.71.28,1.51.38,2.21a61.24,61.24,0,0,1-2.93,5.91c-18.8,5.3-37.43-3.59-52.6-14.29-8.16.9-16-2-23.84-4.16l-2-1c-16.49-13.71-11.74-43.52-34.28-55.74-4.7-7.23-13.18-11.3-18.22-18.75-7.2.06-14.75-4.74-17-11.25,7.77-11.33,5.2-26.9,2.18-39.72a15,15,0,0,1,2.27-1.56,9,9,0,0,0,2.38-.63l-1.63-9.8-.2,0c-2,.24-3.65-1-5.56-1.14-1-1.71-.68-3.9-1.25-5A41.1,41.1,0,0,0,258,327l-9-1c-15.27-1-31.22-8.76-41.3-17.7-2.32-.12-4.08-1.05-6.17-2-7.58-8.88-20.31-7-30.3-10.54C165.45,290.27,162,279,152.42,280,140,271,122.78,262,121.18,243.19c6.4-11.11,3.64-23.62,4.5-34.93L125,208l-7.49-.5c-26.49,1.57-15.78,10.9-30.75,12l-9,26.25c.89,5.52-1.07,12-4,17a31.39,31.39,0,0,1-18.46,0c-4-1.92,2.25-10,1.73-15.24a11.81,11.81,0,0,1,2.53-3.8c4.88-.6,10,.63,14.47-1.7,2.06-2.59,1-6.08,2.39-9,4.54-20.42,4.87-20.79-6.59-32.67Z"/>
	</g>
	<g id="legend">
		<g id="hospitals">
			<g id="h1">
				<path class="hInlay" d="M94.67,129v.7H79V129a.41.41,0,0,1,.42-.41h.7V116a.83.83,0,0,1,.84-.84h3.07V112.6a.85.85,0,0,1,.84-.84H88.8a.84.84,0,0,1,.84.84v2.52h3.08a.84.84,0,0,1,.84.84v12.58h.69A.41.41,0,0,1,94.67,129Z"/>
				<rect class="hBody" x="87.96" y="118.47" width="2.24" height="2.24" rx="0.42"/>
				<rect class="hBody" x="83.49" y="118.47" width="2.24" height="2.24" rx="0.42"/>
				<path class="hBody" d="M87.54,125.18H86.15a.42.42,0,0,0-.42.42v2.94H88V125.6A.42.42,0,0,0,87.54,125.18Z"/>
				<rect class="hBody" x="87.96" y="121.83" width="2.24" height="2.24" rx="0.42"/>
				<rect class="hBody" x="83.49" y="121.83" width="2.24" height="2.24" rx="0.42"/>
				<path class="hCross" d="M85.38,115.12h.91V116a.2.2,0,0,0,.21.2h.7a.2.2,0,0,0,.2-.2v-.91h.91a.21.21,0,0,0,.21-.21v-.7a.21.21,0,0,0-.21-.21H87.4v-.91a.2.2,0,0,0-.2-.21h-.7a.21.21,0,0,0-.21.21V114h-.91a.21.21,0,0,0-.21.21v.7A.21.21,0,0,0,85.38,115.12Z"/>
			</g>
			<g id="h6_a" data-name="h6 a">
				<path class="hInlay" d="M189.82,189.11v.7H174.17v-.7a.41.41,0,0,1,.42-.41h.7V176.12a.83.83,0,0,1,.84-.84h3.07v-2.52a.85.85,0,0,1,.84-.84H184a.84.84,0,0,1,.84.84v2.52h3.08a.84.84,0,0,1,.84.84V188.7h.7A.41.41,0,0,1,189.82,189.11Z"/>
				<rect class="hBody" x="183.12" y="178.63" width="2.24" height="2.24" rx="0.42"/>
				<rect class="hBody" x="178.64" y="178.63" width="2.24" height="2.24" rx="0.42"/>
				<path class="hBody" d="M182.7,185.34h-1.4a.42.42,0,0,0-.42.42v2.94h2.24v-2.94A.42.42,0,0,0,182.7,185.34Z"/>
				<rect class="hBody" x="183.12" y="181.99" width="2.24" height="2.24" rx="0.42"/>
				<rect class="hBody" x="178.64" y="181.99" width="2.24" height="2.24" rx="0.42"/>
				<path class="hCross" d="M180.53,175.28h.91v.91a.2.2,0,0,0,.21.2h.7a.21.21,0,0,0,.21-.2v-.91h.9a.22.22,0,0,0,.22-.21v-.7a.21.21,0,0,0-.22-.21h-.9v-.91a.21.21,0,0,0-.21-.21h-.7a.21.21,0,0,0-.21.21v.91h-.91a.21.21,0,0,0-.21.21v.7A.21.21,0,0,0,180.53,175.28Z"/>
			</g>
			<g id="h6_b" data-name="h6 b">
				<path class="hInlay" d="M204.72,194.25v.7H189.06v-.7a.42.42,0,0,1,.42-.42h.7V181.25a.84.84,0,0,1,.84-.83h3.08V177.9a.84.84,0,0,1,.84-.84h3.91a.85.85,0,0,1,.84.84v2.52h3.07a.83.83,0,0,1,.84.83v12.58h.7A.42.42,0,0,1,204.72,194.25Z"/>
				<rect class="hBody" x="198.01" y="183.77" width="2.24" height="2.24" rx="0.42"/>
				<rect class="hBody" x="193.54" y="183.77" width="2.24" height="2.24" rx="0.42"/>
				<path class="hBody" d="M197.59,190.48h-1.4a.42.42,0,0,0-.42.42v2.93H198V190.9A.42.42,0,0,0,197.59,190.48Z"/>
				<rect class="hBody" x="198.01" y="187.13" width="2.24" height="2.24" rx="0.42"/>
				<rect class="hBody" x="193.54" y="187.13" width="2.24" height="2.24" rx="0.42"/>
				<path class="hCross" d="M195.42,180.42h.91v.9a.21.21,0,0,0,.21.21h.7a.21.21,0,0,0,.21-.21v-.9h.91a.21.21,0,0,0,.21-.21v-.7a.21.21,0,0,0-.21-.21h-.91v-.91a.21.21,0,0,0-.21-.21h-.7a.21.21,0,0,0-.21.21v.91h-.91a.21.21,0,0,0-.21.21v.7A.22.22,0,0,0,195.42,180.42Z"/>
			</g>
			<g id="h5">
				<path class="hInlay" d="M219.33,260.12v.7H203.67v-.7a.42.42,0,0,1,.42-.42h.7V247.12a.84.84,0,0,1,.84-.83h3.07v-2.52a.85.85,0,0,1,.84-.84h3.92a.85.85,0,0,1,.84.84v2.52h3.07a.84.84,0,0,1,.84.83V259.7h.7A.42.42,0,0,1,219.33,260.12Z"/>
				<rect class="hBody" x="212.62" y="249.64" width="2.24" height="2.24" rx="0.42"/>
				<rect class="hBody" x="208.15" y="249.64" width="2.24" height="2.24" rx="0.42"/>
				<path class="hBody" d="M212.2,256.35h-1.4a.42.42,0,0,0-.42.42v2.93h2.24v-2.93A.42.42,0,0,0,212.2,256.35Z"/>
				<rect class="hBody" x="212.62" y="253" width="2.24" height="2.24" rx="0.42"/>
				<rect class="hBody" x="208.15" y="253" width="2.24" height="2.24" rx="0.42"/>
				<path class="hCross" d="M210,246.29h.91v.9a.21.21,0,0,0,.21.21h.7a.21.21,0,0,0,.21-.21v-.9H213a.22.22,0,0,0,.21-.21v-.7a.21.21,0,0,0-.21-.21h-.91v-.91a.21.21,0,0,0-.21-.21h-.7a.21.21,0,0,0-.21.21v.91H210a.21.21,0,0,0-.21.21v.7A.22.22,0,0,0,210,246.29Z"/>
			</g>
			<g id="h16">
				<path class="hInlay" d="M264.74,233.26V234H249.09v-.69a.41.41,0,0,1,.42-.42h.69V220.26a.84.84,0,0,1,.84-.84h3.08V216.9a.84.84,0,0,1,.84-.84h3.91a.85.85,0,0,1,.84.84v2.52h3.07a.83.83,0,0,1,.84.84v12.58h.7A.42.42,0,0,1,264.74,233.26Z"/>
				<rect class="hBody" x="258.03" y="222.77" width="2.24" height="2.24" rx="0.42"/>
				<rect class="hBody" x="253.56" y="222.77" width="2.24" height="2.24" rx="0.42"/>
				<path class="hBody" d="M257.61,229.48h-1.4a.41.41,0,0,0-.41.42v2.94H258V229.9A.42.42,0,0,0,257.61,229.48Z"/>
				<rect class="hBody" x="258.03" y="226.13" width="2.24" height="2.24" rx="0.42"/>
				<rect class="hBody" x="253.56" y="226.13" width="2.24" height="2.24" rx="0.42"/>
				<path class="hCross" d="M255.45,219.42h.91v.91a.21.21,0,0,0,.2.21h.7a.21.21,0,0,0,.21-.21v-.91h.91a.21.21,0,0,0,.21-.21v-.7a.21.21,0,0,0-.21-.21h-.91v-.91a.21.21,0,0,0-.21-.21h-.7a.21.21,0,0,0-.2.21v.91h-.91a.21.21,0,0,0-.21.21v.7A.21.21,0,0,0,255.45,219.42Z"/>
			</g>
			<g id="h3">
				<path class="hInlay" d="M318.93,126.22v.7H303.27v-.7a.42.42,0,0,1,.42-.42h.7V113.22a.84.84,0,0,1,.84-.84h3.08v-2.52a.84.84,0,0,1,.84-.84h3.91a.85.85,0,0,1,.84.84v2.52H317a.83.83,0,0,1,.84.84V125.8h.7A.42.42,0,0,1,318.93,126.22Z"/>
				<rect class="hBody" x="312.22" y="115.73" width="2.24" height="2.24" rx="0.42"/>
				<rect class="hBody" x="307.75" y="115.73" width="2.24" height="2.24" rx="0.42"/>
				<path class="hBody" d="M311.8,122.44h-1.4a.42.42,0,0,0-.42.42v2.94h2.24v-2.94A.42.42,0,0,0,311.8,122.44Z"/>
				<rect class="hBody" x="312.22" y="119.09" width="2.24" height="2.24" rx="0.42"/>
				<rect class="hBody" x="307.75" y="119.09" width="2.24" height="2.24" rx="0.42"/>
				<path class="hCross" d="M309.63,112.38h.91v.91a.22.22,0,0,0,.21.21h.7a.21.21,0,0,0,.21-.21v-.91h.91a.21.21,0,0,0,.21-.21v-.7a.21.21,0,0,0-.21-.21h-.91v-.91a.21.21,0,0,0-.21-.21h-.7a.22.22,0,0,0-.21.21v.91h-.91a.22.22,0,0,0-.21.21v.7A.21.21,0,0,0,309.63,112.38Z"/>
			</g>
			<g id="h9">
				<path class="hInlay" d="M379.63,423.17v.7H364v-.7a.42.42,0,0,1,.42-.42h.7V410.17a.84.84,0,0,1,.84-.84H369v-2.51a.85.85,0,0,1,.84-.84h3.91a.84.84,0,0,1,.84.84v2.51h3.08a.85.85,0,0,1,.84.84v12.58h.69A.42.42,0,0,1,379.63,423.17Z"/>
				<rect class="hBody" x="372.92" y="412.69" width="2.24" height="2.24" rx="0.42"/>
				<rect class="hBody" x="368.45" y="412.69" width="2.24" height="2.24" rx="0.42"/>
				<path class="hBody" d="M372.5,419.4h-1.39a.42.42,0,0,0-.42.42v2.93h2.23v-2.93A.42.42,0,0,0,372.5,419.4Z"/>
				<rect class="hBody" x="372.92" y="416.04" width="2.24" height="2.24" rx="0.42"/>
				<rect class="hBody" x="368.45" y="416.04" width="2.24" height="2.24" rx="0.42"/>
				<path class="hCross" d="M370.34,409.33h.91v.91a.21.21,0,0,0,.21.21h.7a.2.2,0,0,0,.2-.21v-.91h.91a.21.21,0,0,0,.21-.21v-.69a.21.21,0,0,0-.21-.21h-.91v-.91a.2.2,0,0,0-.2-.21h-.7a.21.21,0,0,0-.21.21v.91h-.91a.21.21,0,0,0-.21.21v.69A.21.21,0,0,0,370.34,409.33Z"/>
			</g>
			<g id="h11">
				<path class="hInlay" d="M553.69,378.23v.7H538v-.7a.41.41,0,0,1,.42-.41h.7V365.24a.84.84,0,0,1,.84-.84h3.07v-2.52a.85.85,0,0,1,.84-.84h3.92a.85.85,0,0,1,.84.84v2.52h3.07a.84.84,0,0,1,.84.84v12.58h.7A.41.41,0,0,1,553.69,378.23Z"/>
				<rect class="hBody" x="546.98" y="367.75" width="2.24" height="2.24" rx="0.42"/>
				<rect class="hBody" x="542.51" y="367.75" width="2.24" height="2.24" rx="0.42"/>
				<path class="hBody" d="M546.56,374.46h-1.4a.42.42,0,0,0-.42.42v2.94H547v-2.94A.42.42,0,0,0,546.56,374.46Z"/>
				<rect class="hBody" x="546.98" y="371.11" width="2.24" height="2.24" rx="0.42"/>
				<rect class="hBody" x="542.51" y="371.11" width="2.24" height="2.24" rx="0.42"/>
				<path class="hCross" d="M544.39,364.4h.91v.91a.21.21,0,0,0,.21.21h.7a.21.21,0,0,0,.21-.21v-.91h.91a.22.22,0,0,0,.21-.21v-.7a.21.21,0,0,0-.21-.21h-.91v-.91a.21.21,0,0,0-.21-.21h-.7a.21.21,0,0,0-.21.21v.91h-.91a.21.21,0,0,0-.21.21v.7A.22.22,0,0,0,544.39,364.4Z"/>
			</g>
		</g>
		<g id="nuclear-plant" data-name="Nuclear Plant">
			<path class="radK" d="M463.14,171.86a8.46,8.46,0,1,0-8.45-8.45A8.45,8.45,0,0,0,463.14,171.86Z"/>
			<path class="radY" d="M463.14,155.64a7.77,7.77,0,1,1-7.77,7.77A7.77,7.77,0,0,1,463.14,155.64Z"/>
			<path class="radK" d="M465.85,163.41h3.34a.66.66,0,0,0,.67-.71,6.71,6.71,0,0,0-2.51-4.55.68.68,0,0,0-1,.16l-1.76,2.82A2.68,2.68,0,0,1,465.85,163.41Z"/>
			<path class="radK" d="M461.72,165.69,460,168.52a.67.67,0,0,0,.24.95,6.59,6.59,0,0,0,5.91,0,.67.67,0,0,0,.24-.95l-1.76-2.83a2.63,2.63,0,0,1-1.43.42A2.58,2.58,0,0,1,461.72,165.69Z"/>
			<path class="radK" d="M457.1,163.41h3.34a2.7,2.7,0,0,1,1.28-2.29L460,158.3a.68.68,0,0,0-1-.16,6.69,6.69,0,0,0-2.51,4.55A.66.66,0,0,0,457.1,163.41Z"/>
			<path class="radK" d="M463.14,164.76a1.35,1.35,0,1,0-1.35-1.35A1.34,1.34,0,0,0,463.14,164.76Z"/>
		</g>
		<g id="nuclear-plant-key" data-name="Nuclear Plant Key">
			<path class="radK" d="M44.17,329a8.45,8.45,0,1,0-8.46-8.45A8.45,8.45,0,0,0,44.17,329Z"/>
			<path class="radY" d="M44.17,312.75a7.77,7.77,0,1,1-7.78,7.77A7.78,7.78,0,0,1,44.17,312.75Z"/>
			<path class="radK" d="M46.87,320.52h3.34a.68.68,0,0,0,.68-.71,6.72,6.72,0,0,0-2.52-4.55.68.68,0,0,0-1,.16l-1.76,2.82A2.68,2.68,0,0,1,46.87,320.52Z"/>
			<path class="radK" d="M42.74,322.8,41,325.63a.67.67,0,0,0,.25.95,6.57,6.57,0,0,0,5.9,0,.67.67,0,0,0,.24-.95L45.6,322.8a2.64,2.64,0,0,1-2.86,0Z"/>
			<path class="radK" d="M38.12,320.52h3.34a2.7,2.7,0,0,1,1.28-2.29L41,315.41a.69.69,0,0,0-1-.16,6.73,6.73,0,0,0-2.51,4.55A.66.66,0,0,0,38.12,320.52Z"/>
			<path class="radK" d="M44.17,321.87a1.35,1.35,0,1,0-1.36-1.35A1.35,1.35,0,0,0,44.17,321.87Z"/>
			<text class="key-text" transform="translate(56.48 324.79)">Nuclear plant</text>
		</g>
		<g id="hospital-key" data-name="Hospital Key">
			<path class="hInlay" d="M52,349.88v.7H36.34v-.7a.42.42,0,0,1,.42-.42h.7V336.88a.84.84,0,0,1,.84-.84h3.07v-2.51a.85.85,0,0,1,.84-.84h3.91a.84.84,0,0,1,.84.84V336H50a.85.85,0,0,1,.84.84v12.58h.69A.42.42,0,0,1,52,349.88Z"/>
			<rect class="hBody" x="45.28" y="339.4" width="2.24" height="2.24" rx="0.42"/>
			<rect class="hBody" x="40.81" y="339.4" width="2.24" height="2.24" rx="0.42"/>
			<path class="hBody" d="M44.86,346.11H43.47a.42.42,0,0,0-.42.42v2.93h2.23v-2.93A.42.42,0,0,0,44.86,346.11Z"/>
			<rect class="hBody" x="45.28" y="342.75" width="2.24" height="2.24" rx="0.42"/>
			<rect class="hBody" x="40.81" y="342.75" width="2.24" height="2.24" rx="0.42"/>
			<path class="hCross" d="M42.7,336h.91V337a.21.21,0,0,0,.21.21h.7a.2.2,0,0,0,.2-.21V336h.91a.21.21,0,0,0,.21-.21v-.69a.21.21,0,0,0-.21-.21h-.91V334a.2.2,0,0,0-.2-.21h-.7a.21.21,0,0,0-.21.21v.91H42.7a.21.21,0,0,0-.21.21v.69A.21.21,0,0,0,42.7,336Z"/>
			<text class="key-text" transform="translate(56.48 345.9)">Hospital</text>
		</g>
	</g>
	<g id="scale">
		<polygon id="scale-bar" points="129.93 450.94 129.93 454.94 129.91 454.94 129.91 467.94 125.91 467.94 125.91 454.94 33.09 454.94 33.09 450.94 122.93 450.94 122.93 437.94 126.93 437.94 126.93 450.94 129.93 450.94"/>
		<text class="scale-text" transform="translate(48.31 445.44)">3 mi</text>
		<text class="scale-text" transform="translate(48.31 479.81)">5 km</text>
	</g>
</svg>